<?xml version="1.0" standalone="no"?>
<!DOCTYPE svg PUBLIC "-//W3C//DTD SVG 20010904//EN"
 "http://www.w3.org/TR/2001/REC-SVG-20010904/DTD/svg10.dtd">
<svg version="1.0" xmlns="http://www.w3.org/2000/svg"
 width="132.000000pt" height="50.000000pt" viewBox="0 0 132.000000 50.000000"
 preserveAspectRatio="xMidYMid meet">

<g transform="translate(0.000000,50.000000) scale(0.100000,-0.100000)"
fill="#000000" stroke="none">
<path d="M593 260 c0 -36 2 -48 4 -27 3 29 9 37 24 37 15 0 19 -7 19 -35 0
-19 5 -35 10 -35 14 0 12 64 -2 78 -7 7 -20 12 -29 12 -10 0 -20 8 -22 18 -3
9 -4 -12 -4 -48z"/>
<path d="M690 309 c0 -5 5 -7 10 -4 6 3 10 8 10 11 0 2 -4 4 -10 4 -5 0 -10
-5 -10 -11z"/>
<path d="M512 258 c3 -48 5 -53 28 -56 22 -2 23 -1 8 8 -22 14 -24 60 -3 60
12 0 11 4 -5 20 -11 11 -22 20 -26 20 -3 0 -4 -24 -2 -52z"/>
<path d="M956 260 c-18 -50 -14 -82 5 -47 13 22 45 22 58 0 20 -36 23 -2 4 44
-26 65 -44 66 -67 3z m47 0 c4 -15 0 -20 -14 -20 -21 0 -22 1 -13 24 8 22 21
20 27 -4z"/>
<path d="M1070 255 l0 -55 33 0 c41 0 57 15 57 55 0 40 -16 55 -57 55 l-33 0
0 -55z m65 0 c0 -23 -5 -31 -22 -33 -20 -3 -23 1 -23 33 0 32 3 36 23 33 17
-2 22 -10 22 -33z"/>
<path d="M314 276 c-3 -8 -4 -29 -1 -48 l4 -33 1 38 c2 30 6 37 22 37 16 0 20
-7 20 -35 0 -19 5 -35 10 -35 14 0 12 64 -2 78 -16 16 -47 15 -54 -2z"/>
<path d="M421 276 c-7 -8 -11 -27 -9 -43 2 -22 9 -29 30 -31 38 -4 56 30 33
64 -18 27 -37 31 -54 10z m44 -36 c0 -29 -32 -41 -41 -16 -9 24 4 48 23 44 12
-2 18 -12 18 -28z"/>
<path d="M744 276 c-3 -8 -4 -29 -1 -48 l4 -33 1 38 c2 30 6 37 22 37 16 0 20
-7 20 -35 0 -19 5 -35 10 -35 16 0 12 57 -6 74 -19 20 -43 21 -50 2z"/>
<path d="M846 274 c-20 -19 -20 -35 -2 -59 8 -11 19 -16 30 -12 10 4 16 1 16
-8 0 -7 -12 -16 -27 -18 -27 -4 -27 -4 3 -6 36 -1 44 11 44 69 0 25 -5 40 -16
44 -24 9 -31 8 -48 -10z m44 -29 c0 -18 -5 -25 -20 -25 -20 0 -28 28 -13 43
15 16 33 6 33 -18z"/>
<path d="M693 240 c0 -25 2 -35 4 -22 2 12 2 32 0 45 -2 12 -4 2 -4 -23z"/>
</g>
</svg>
