<?xml version="1.0" standalone="no"?>
<!DOCTYPE svg PUBLIC "-//W3C//DTD SVG 20010904//EN"
 "http://www.w3.org/TR/2001/REC-SVG-20010904/DTD/svg10.dtd">
<svg version="1.0" xmlns="http://www.w3.org/2000/svg"
 width="1674.000000pt" height="456.000000pt" viewBox="0 0 1674.000000 456.000000"
 preserveAspectRatio="xMidYMid meet">

<g transform="translate(0.000000,456.000000) scale(0.100000,-0.100000)"
fill="#000000" stroke="none">
<path d="M8048 3467 l-128 -20 0 -944 0 -943 150 0 150 0 0 529 c0 424 3 531
13 539 7 6 56 19 107 28 200 34 320 -18 367 -158 15 -47 18 -107 21 -495 l3
-443 155 0 155 0 -3 468 c-4 443 -5 471 -26 545 -29 104 -64 167 -129 228
-100 95 -232 134 -423 126 -63 -3 -140 -12 -170 -20 -30 -8 -58 -13 -62 -11
-5 3 -8 138 -8 300 l0 294 -22 -1 c-13 -1 -80 -11 -150 -22z"/>
<path d="M9475 3468 c-74 -44 -108 -129 -85 -220 34 -134 214 -182 318 -85 38
35 52 72 52 137 0 120 -59 182 -179 188 -54 2 -73 -1 -106 -20z"/>
<path d="M15325 3310 c-60 -5 -145 -14 -187 -20 l-78 -12 0 -849 c0 -799 1
-848 18 -853 44 -14 166 -27 329 -36 326 -19 556 15 753 112 90 45 117 64 190
138 121 121 177 226 217 404 20 91 23 352 4 456 -64 356 -290 570 -681 645
-101 20 -402 28 -565 15z m500 -345 c243 -64 358 -236 358 -535 0 -184 -46
-315 -149 -417 -101 -101 -231 -143 -451 -143 l-133 0 0 554 0 555 23 5 c45
10 293 -3 352 -19z"/>
<path d="M6990 3289 c-58 -10 -120 -21 -138 -24 l-33 -6 4 -677 c4 -728 4
-739 58 -843 43 -86 136 -161 234 -191 63 -19 200 -27 291 -18 118 12 254 54
254 78 -1 40 -48 227 -57 225 -5 -1 -45 -11 -88 -22 -87 -23 -194 -27 -246
-10 -48 16 -96 65 -116 118 -16 41 -18 85 -18 386 l0 340 238 3 237 2 0 125 0
125 -237 2 -238 3 -3 203 c-2 184 -4 202 -20 201 -9 -1 -64 -9 -122 -20z"/>
<path d="M13710 3188 c-117 -249 -286 -655 -411 -989 -63 -170 -229 -629 -229
-635 0 -2 91 -4 203 -4 l203 0 43 133 c24 72 52 156 63 185 l19 52 343 0 342
0 56 -162 c31 -90 59 -173 63 -185 6 -23 7 -23 216 -23 115 0 209 2 209 4 0 8
-140 397 -213 591 -135 359 -252 644 -397 963 l-83 182 -187 0 -187 0 -53
-112z m310 -478 c65 -167 170 -454 170 -466 0 -2 -112 -4 -250 -4 -137 0 -250
2 -250 5 0 2 4 14 10 27 5 13 57 149 116 303 58 154 110 291 115 304 5 13 11
22 14 20 2 -2 36 -87 75 -189z"/>
<path d="M5755 2929 c-302 -47 -503 -275 -535 -606 -44 -464 228 -804 642
-803 185 1 328 57 449 179 86 86 135 174 170 306 31 114 31 336 1 448 -52 192
-169 342 -323 415 -46 22 -104 44 -129 50 -68 16 -208 22 -275 11z m205 -275
c41 -12 67 -29 110 -72 84 -84 120 -193 120 -356 -1 -204 -68 -344 -195 -407
-60 -29 -70 -31 -147 -27 -101 6 -147 27 -211 98 -78 86 -114 223 -104 386 19
290 196 447 427 378z"/>
<path d="M4054 2914 c-55 -7 -139 -21 -185 -31 l-84 -18 -3 -653 -2 -652 155
0 155 0 0 544 0 544 68 8 c99 12 222 10 266 -5 58 -20 112 -74 138 -139 22
-56 23 -65 26 -504 l3 -448 155 0 154 0 0 434 c0 341 -3 452 -15 522 -38 222
-168 359 -382 400 -93 18 -312 17 -449 -2z"/>
<path d="M10440 2919 c-76 -9 -203 -32 -272 -50 l-38 -10 0 -649 0 -650 155 0
155 0 0 539 c0 297 3 542 8 545 4 2 54 10 112 16 170 20 272 -8 327 -89 54
-81 57 -102 61 -573 l3 -438 155 0 156 0 -5 463 c-5 515 -7 541 -75 670 -59
115 -168 190 -318 222 -76 16 -299 18 -424 4z"/>
<path d="M12083 2920 c-148 -27 -303 -117 -379 -221 -46 -63 -89 -152 -110
-229 -25 -89 -25 -327 -1 -420 57 -216 196 -360 393 -406 107 -25 297 -16 388
19 37 15 71 27 74 27 13 0 -8 -152 -28 -199 -50 -115 -140 -156 -340 -155
-129 0 -196 10 -312 47 -37 11 -69 19 -71 16 -2 -2 -16 -60 -30 -128 -21 -97
-24 -127 -14 -133 20 -12 175 -46 272 -59 111 -14 334 -6 425 16 204 50 333
176 387 377 15 55 17 144 20 725 l4 662 -38 10 c-21 5 -87 19 -148 31 -124 24
-405 35 -492 20z m355 -264 c9 -5 12 -94 12 -357 l0 -350 -52 -24 c-204 -94
-411 -33 -479 141 -33 87 -39 258 -10 351 37 123 96 193 198 234 41 17 67 19
183 16 75 -2 141 -7 148 -11z"/>
<path d="M9420 2230 l0 -670 155 0 155 0 0 670 0 670 -155 0 -155 0 0 -670z"/>
</g>
</svg>
